<svg xmlns="http://www.w3.org/2000/svg" xmlns:xlink="http://www.w3.org/1999/xlink" width="100" zoomAndPan="magnify" viewBox="0 0 75 74.999997" height="100" preserveAspectRatio="xMidYMid meet" version="1.0"><defs><clipPath id="adbdde53bb"><path d="M 0 0 L 75 0 L 75 71 L 0 71 Z M 0 0 " clip-rule="nonzero"/></clipPath><clipPath id="3dfb543a15"><path d="M -27.660156 8.515625 L 76.585938 -34.105469 L 101.773438 27.511719 L -2.472656 70.128906 Z M -27.660156 8.515625 " clip-rule="nonzero"/></clipPath><clipPath id="16ccc15b50"><path d="M 0 0 L 75 0 L 75 70.320312 L 0 70.320312 Z M 0 0 " clip-rule="nonzero"/></clipPath><clipPath id="88f52154e1"><path d="M -27.660156 8.515625 L 76.585938 -34.105469 L 101.773438 27.511719 L -2.472656 70.128906 Z M -27.660156 8.515625 " clip-rule="nonzero"/></clipPath><clipPath id="28e57a3bb0"><rect x="0" width="75" y="0" height="71"/></clipPath></defs><rect x="-7.5" width="90" fill="#ffffff" y="-7.5" height="89.999996" fill-opacity="1"/><rect x="-7.5" width="90" fill="#ffffff" y="-7.5" height="89.999996" fill-opacity="1"/><g clip-path="url(#adbdde53bb)"><g clip-path="url(#3dfb543a15)"><g transform="matrix(1, 0, 0, 1, 0, -0.000000000000001893)"><g clip-path="url(#28e57a3bb0)"><g clip-path="url(#16ccc15b50)"><g clip-path="url(#88f52154e1)"><path fill="#38b6ff" d="M -27.660156 8.515625 L 76.554688 -34.09375 L 101.742188 27.523438 L -2.472656 70.128906 Z M -27.660156 8.515625 " fill-opacity="1" fill-rule="nonzero"/></g></g></g></g></g></g></svg>